<svg width="491" height="222" viewBox="0 0 491 222" fill="none" xmlns="http://www.w3.org/2000/svg">
<path d="M1 221V216.5C1 214.5 2.5 209.8 8.5 207C12.5 201.8 18 195 23 194L38.5 186.5L53 175.5L65 168.5C66.3333 167.833 69.4 166.4 71 166C72.6 165.6 76 165.167 77.5 165L90 157.5L98 156.5C108 150.333 126 137.5 127 136C128.6 134.8 136.333 127.5 140 124L143.5 117.5L147 112.5L153.5 106L159 99.5L162.5 92.5L164.5 86.5L165 75.5C164.333 75.5 163 75.6 163 76C163 76.4 155 81.8333 151 84.5L98 102L89.5 106L77.5 106.5L70 107C68.5 106.833 66.4 105.9 70 103.5C73.6 101.1 80.5 98.1667 83.5 97C84.8333 95.8333 86.5 93.4 82.5 93C77.5 92.5 86 90.5 87 90.5H92.5C93.302 90.6337 95.3904 91.5178 95.4122 91.8626L113 86L124 79.5L129.5 76L135.5 75.5C135.167 73.6667 135.1 70 137.5 70C139.9 70 141.5 69.6667 142 69.5L143 66.5L146 64.5L151 61L154.5 57.5C155.667 55 159 49.4 163 47C167 44.6 173 41.6667 175.5 40.5L180.5 40C182.667 38.8333 187.4 35.8 189 33C191 29.5 201 9.5 203 7C205 4.5 209 1 213 1C217 1 224.5 2.5 227.5 3C230.5 3.5 236 5 238 8.5C240 12 244.5 37.5 233.5 45C224.7 51 225.167 53.8333 226.5 54.5L230 56C232 56.5 236.5 57.5 238.5 57.5C241 57.5 258 59 265.5 57C273 55 281 49 284.5 48.5C287.3 48.1 288.333 48.3333 288.5 48.5L306.5 41.5C306.833 39.8333 308.8 36.5 314 36.5H319L323.5 34C325.167 33.3333 328 32.8 326 36C324 39.2 327.833 38.3333 330 37.5V32.5C329.833 31.6667 329.2 29.9 328 29.5C326.5 29 334.5 29 335.5 36.5C342.3 35.7 360.667 33.1667 369 32C394.333 27.8333 488.3 14.5 489.5 18.5C483.1 17.5933 436.5 23.4555 435.5 23.5L335.5 37C335.5 41.5 334.5 50.4 330.5 50V43C328.167 46.1667 322.7 52.3 319.5 51.5C316.3 51.9 313.5 52 312.5 52L276.102 68.5443C274.216 70.1958 271.298 71.6698 269.5 72.334V72.5C269.329 72.5042 269.155 72.5088 268.979 72.5137C268.242 72.7477 267.811 72.7817 267.921 72.5467C253.947 73.0252 228.08 75.5703 225 82.5C219.8 89.7 209.5 103.5 205 109.5V114L201 122L223 118C234 117.667 256 118.2 256 123C257.2 121 258.167 148 258 154C255.167 160.833 249.7 175.3 250.5 178.5V192.5L267.5 207C272.833 207.833 281.3 211.2 272.5 218C258.9 220.4 253.833 216.333 253 214C249.667 213.833 243.1 213.8 243.5 215C243.9 216.2 237.667 215.833 234.5 215.5C231.5 215.833 226.6 214.6 231 207C231 201.8 232.333 199.167 233 198.5C234.167 198 236.5 196.4 236.5 194C236.5 191 230.5 160.5 233.5 152.5C235.9 146.1 238.167 142.5 239 141.5C233 142 223 145.5 222 145.5C210 149.5 198 154 189.5 154C182.7 154 168.333 153.667 162 153.5C142.445 159.667 118.275 167.735 107.5 174.395C107.454 174.424 107.408 174.453 107.361 174.482C106.256 175.171 105.295 175.845 104.5 176.5C104.395 176.405 104.29 176.312 104.186 176.22C89.3861 183.536 58.3867 190.154 55 190L30.5 202V205C31.3333 205.667 32 207.5 28 209.5C23 212 17 217.5 17 219.5C17 221.1 6.33333 221.167 1 221Z" fill="white"/>
<path d="M151 84.5C155 81.8333 163 76.4 163 76C163 75.6 164.333 75.5 165 75.5L164.5 86.5L162.5 92.5L159 99.5L153.5 106L147 112.5L143.5 117.5L140 124C136.333 127.5 128.6 134.8 127 136C126 137.5 108 150.333 98 156.5L90 157.5L77.5 165C76 165.167 72.6 165.6 71 166C69.4 166.4 66.3333 167.833 65 168.5L53 175.5L38.5 186.5L23 194C18 195 12.5 201.8 8.5 207C2.5 209.8 1 214.5 1 216.5V221C6.33333 221.167 17 221.1 17 219.5C17 217.5 23 212 28 209.5C32 207.5 31.3333 205.667 30.5 205V202L55 190C58.6667 190.167 94.7 182.395 107.5 174.395C106.7 168.795 87 171.833 90 171C91.5 169.833 96.5 169.3 104.5 176.5C113 169.5 140.333 160.333 162 153.5C168.333 153.667 182.7 154 189.5 154C198 154 210 149.5 222 145.5C223 145.5 233 142 239 141.5C238.167 142.5 235.9 146.1 233.5 152.5C230.5 160.5 236.5 191 236.5 194C236.5 196.4 234.167 198 233 198.5C232.333 199.167 231 201.8 231 207C226.6 214.6 231.5 215.833 234.5 215.5C237.667 215.833 243.9 216.2 243.5 215C243.1 213.8 249.667 213.833 253 214C253.833 216.333 258.9 220.4 272.5 218C281.3 211.2 272.833 207.833 267.5 207L250.5 192.5C250.5 189.333 250.5 182.1 250.5 178.5C249.7 175.3 255.167 160.833 258 154C258.167 148 257.2 121 256 123M151 84.5C150 84.6667 148 84.8 148 84C148 83 141 80.5 141 82C139.8 83.2 153.5 81.8333 151 84.5ZM151 84.5L98 102L89.5 106L77.5 106.5L70 107C68.5 106.833 66.4 105.9 70 103.5C73.6 101.1 80.5 98.1667 83.5 97C84.8333 95.8333 86.5 93.4 82.5 93C77.5 92.5 86 90.5 87 90.5C88.6 90.5 91.3333 90.5 92.5 90.5C93.5 90.6667 96.5 92 95 92C93.8 92.4 106.5 88.1667 113 86L124 79.5L129.5 76L135.5 75.5C135.167 73.6667 135.1 70 137.5 70C139.9 70 141.5 69.6667 142 69.5L143 66.5L146 64.5L151 61L154.5 57.5C155.667 55 159 49.4 163 47C167 44.6 173 41.6667 175.5 40.5L180.5 40C182.667 38.8333 187.4 35.8 189 33C191 29.5 201 9.5 203 7C205 4.5 209 1 213 1C217 1 224.5 2.5 227.5 3C230.5 3.5 236 5 238 8.5C240 12 244.5 37.5 233.5 45C224.7 51 225.167 53.8333 226.5 54.5L230 56C232 56.5 236.5 57.5 238.5 57.5C241 57.5 258 59 265.5 57C273 55 281 49 284.5 48.5C287.3 48.1 288.333 48.3333 288.5 48.5L306.5 41.5C306.833 39.8333 308.8 36.5 314 36.5C319.2 36.5 319.5 36.5 319 36.5L323.5 34C325.167 33.3333 328 32.8 326 36C324 39.2 327.833 38.3333 330 37.5V32.5C329.833 31.6667 329.2 29.9 328 29.5C326.5 29 334.5 29 335.5 36.5C342.3 35.7 360.667 33.1667 369 32C394.333 27.8333 488.3 14.5 489.5 18.5C483.1 17.5933 436.5 23.4555 435.5 23.5L335.5 37C335.5 41.5 334.5 50.4 330.5 50C330.5 46.4 330.5 43.8333 330.5 43C328.167 46.1667 322.7 52.3 319.5 51.5C316.3 51.9 313.5 52 312.5 52L268.5 72C264.667 74.8333 280.7 68.5 277.5 64.5C272.3 64.5 270 67.1667 269.5 68.5V72.5C256 72.8333 228.2 75.3 225 82.5C219.8 89.7 209.5 103.5 205 109.5V114L201 122L223 118C234 117.667 256 118.2 256 123M256 123C252 125 250.667 126.5 250.5 127V133C252.167 135.667 254.8 125 256 123Z" stroke="white"/>
</svg>
